<?xml version="1.0" encoding="UTF-8"?> <svg xmlns="http://www.w3.org/2000/svg" width="300.57" height="300.57" viewBox="0 0 300.57 300.57"> <defs> <style> .cls-1, .cls-3 { fill: #37b9c3; } .cls-2 { fill: #fff; } .cls-3 { stroke: #fff; stroke-linecap: round; stroke-linejoin: round; } </style> </defs> <title>icon-arbitrage-blue</title> <g id="circles"> <circle class="cls-1" cx="150.29" cy="150.29" r="140"></circle> </g> <g id="art"> <g> <g> <path class="cls-2" d="M89.88,159.54l16.74-14.3a4,4,0,0,0-5.2-6.08l-11.19,9.57A59.5,59.5,0,0,1,206.44,131a4,4,0,1,0,7.63-2.41A67.5,67.5,0,0,0,82.27,147l-9.12-7.79a4,4,0,1,0-5.2,6.08l16.74,14.3a4,4,0,0,0,5.19,0Z"></path> <path class="cls-2" d="M232.62,153.46l-16.74-14.3a4,4,0,0,0-5.19,0L194,153.46a4,4,0,1,0,5.2,6.08l10-8.56A59.5,59.5,0,0,1,93.23,167.79a4,4,0,1,0-7.59,2.52,67.5,67.5,0,0,0,131.53-19.53l10.25,8.76a4,4,0,0,0,5.2-6.08Z"></path> </g> <path class="cls-2" d="M168.72,151.53a11.16,11.16,0,0,0-3.51-4,21.4,21.4,0,0,0-5.46-2.71,71.07,71.07,0,0,0-7.16-2c-2.11-.53-3.62-.93-4.53-1.21a14.48,14.48,0,0,1-2.72-1.15,6.46,6.46,0,0,1-2.1-1.75,3.94,3.94,0,0,1-.77-2.43,4.67,4.67,0,0,1,2.25-3.87,9.9,9.9,0,0,1,5.92-1.62q4,0,5.74,1.49a11.93,11.93,0,0,1,3.07,4.13,11.08,11.08,0,0,0,1.83,2.66,3.41,3.41,0,0,0,2.47.82,3.8,3.8,0,0,0,3-1.36,4.46,4.46,0,0,0,1.19-3,8.53,8.53,0,0,0-1-3.79,11.9,11.9,0,0,0-3-3.72,15.85,15.85,0,0,0-5.22-2.84,19,19,0,0,0-3.43-.8,3.76,3.76,0,0,0,.28-1.43v-6.37a3.83,3.83,0,0,0-3.82-3.82h-1.28a3.83,3.83,0,0,0-3.82,3.82v6.37a3.79,3.79,0,0,0,.3,1.47,22.3,22.3,0,0,0-5.06,1.3,13.35,13.35,0,0,0-6.1,4.61,11.68,11.68,0,0,0-2.1,6.86,11.14,11.14,0,0,0,2,6.78,13.64,13.64,0,0,0,5.39,4.31,44.68,44.68,0,0,0,8.44,2.76q3.76.87,6,1.63a9.15,9.15,0,0,1,3.67,2.22,5.21,5.21,0,0,1,1.42,3.78,5.92,5.92,0,0,1-2.63,4.9,11.24,11.24,0,0,1-6.85,2,10.81,10.81,0,0,1-5-1,7.73,7.73,0,0,1-2.91-2.47,18.69,18.69,0,0,1-1.93-3.73,7.42,7.42,0,0,0-1.78-2.84,3.58,3.58,0,0,0-2.53-1,4.15,4.15,0,0,0-4.25,4.18,11.39,11.39,0,0,0,2,6.11,15.29,15.29,0,0,0,5.18,5,19.81,19.81,0,0,0,7.13,2.29,3.78,3.78,0,0,0-.45,1.77v6.37a3.83,3.83,0,0,0,3.82,3.82h1.28a3.83,3.83,0,0,0,3.82-3.82V173.8a3.72,3.72,0,0,0-.42-1.7,21.42,21.42,0,0,0,6.23-1.66,14.53,14.53,0,0,0,6.4-5.3,13.69,13.69,0,0,0,2.19-7.62A12.94,12.94,0,0,0,168.72,151.53Z"></path> <g> <circle class="cls-1" cx="194.38" cy="195.27" r="23.77"></circle> <g> <g> <circle class="cls-2" cx="194.38" cy="195.27" r="21.17"></circle> <path class="cls-1" d="M194.38,217A21.7,21.7,0,0,1,179,179.92a21.71,21.71,0,0,1,23.8-4.65,21.7,21.7,0,0,1,6.9,35.35,21.93,21.93,0,0,1-6.9,4.65A21.62,21.62,0,0,1,194.38,217Zm0-42.33a20.53,20.53,0,1,0,8,1.62A20.57,20.57,0,0,0,194.38,174.64Z"></path> </g> <path class="cls-3" d="M194.23,182.84a.89.89,0,0,0,0-.29,2.59,2.59,0,0,0-1.82-1.89,3.83,3.83,0,0,0-.42-.08l-.16,0h-.39l-.19,0a4.53,4.53,0,0,0-.49.08,3.56,3.56,0,0,0-1.89,1.08,3.9,3.9,0,0,0-1,1.93,3.75,3.75,0,0,0,.24,2.47c.32.78,1.42,2.11,1.67,2.88l.06.19c.07.21.14.46.2.7H184.3a3.07,3.07,0,0,0-2.16.92,3.11,3.11,0,0,0-.88,2.17,5.83,5.83,0,0,0,.32,1.93.43.43,0,0,1,0,.39,3,3,0,0,0-.29,2.05,3.83,3.83,0,0,0,.58,1.29.17.17,0,0,1,0,.16,2.76,2.76,0,0,0,.27,2.24,4.81,4.81,0,0,0,1,1.2,3.58,3.58,0,0,0,.61,2.18,3.7,3.7,0,0,0,2.4,1.47l.51.08.2,0H195a31,31,0,0,0,4.33-.46V190.35c-.22-.17-2.31-.33-2.47-.51a13,13,0,0,1-1.15-1.19l-.09-.13a15.57,15.57,0,0,1-1.26-2,3.82,3.82,0,0,1-.52-1.71c0-.41,0-.76,0-1.15C193.87,183.61,194.18,183,194.23,182.84Z"></path> <rect class="cls-3" x="200.61" y="189.82" width="6.33" height="16.95" rx="2.9" ry="2.9"></rect> </g> </g> </g> </g> </svg> 